<svg xmlns="http://www.w3.org/2000/svg" xmlns:xlink="http://www.w3.org/1999/xlink" width="1080" zoomAndPan="magnify" viewBox="0 0 810 809.999993" height="1080" preserveAspectRatio="xMidYMid meet" version="1.0"><defs><g/><clipPath id="fd2b71a262"><path d="M 262.925781 479.371094 L 547.058594 479.371094 L 547.058594 810 L 262.925781 810 Z M 262.925781 479.371094 " clip-rule="nonzero"/></clipPath><clipPath id="60767bd5f4"><path d="M 404.992188 809.996094 L 262.925781 727.339844 L 262.925781 562.027344 L 404.992188 479.371094 L 547.058594 562.027344 L 547.058594 727.339844 Z M 404.992188 809.996094 " clip-rule="nonzero"/></clipPath><clipPath id="8f4efecc5e"><path d="M 21.28125 33.175781 L 303.28125 33.175781 L 303.28125 330.925781 L 21.28125 330.925781 Z M 21.28125 33.175781 " clip-rule="nonzero"/></clipPath><clipPath id="dae3a4e3dd"><path d="M 491.589844 33.175781 L 773.589844 33.175781 L 773.589844 330.925781 L 491.589844 330.925781 Z M 491.589844 33.175781 " clip-rule="nonzero"/></clipPath></defs><rect x="-81" width="972" fill="#ffffff" y="-80.999999" height="971.999992" fill-opacity="1"/><rect x="-81" width="972" fill="#ffffff" y="-80.999999" height="971.999992" fill-opacity="1"/><rect x="-81" width="972" fill="#ffffff" y="-80.999999" height="971.999992" fill-opacity="1"/><g clip-path="url(#fd2b71a262)"><g clip-path="url(#60767bd5f4)"><path fill="#c1ff72" d="M 547.058594 479.371094 L 547.058594 810.117188 L 262.925781 810.117188 L 262.925781 479.371094 Z M 547.058594 479.371094 " fill-opacity="1" fill-rule="nonzero"/></g></g><g clip-path="url(#8f4efecc5e)"><path fill="#38b6ff" d="M 303.164062 134.980469 L 303.164062 181.960938 C 303.164062 220.878906 240.054688 252.433594 162.222656 252.433594 C 84.390625 252.433594 21.28125 220.878906 21.28125 181.960938 L 21.28125 134.980469 C 21.28125 173.898438 84.390625 205.453125 162.222656 205.453125 C 240.054688 205.453125 303.164062 173.898438 303.164062 134.980469 Z M 21.28125 213.28125 C 21.28125 252.199219 84.390625 283.753906 162.222656 283.753906 C 240.054688 283.753906 303.164062 252.199219 303.164062 213.28125 L 303.164062 260.261719 C 303.164062 299.179688 240.054688 330.734375 162.222656 330.734375 C 84.390625 330.734375 21.28125 299.179688 21.28125 260.261719 Z M 162.222656 174.132812 C 84.390625 174.132812 21.28125 142.578125 21.28125 103.660156 C 21.28125 64.746094 84.390625 33.191406 162.222656 33.191406 C 240.054688 33.191406 303.164062 64.746094 303.164062 103.660156 C 303.164062 142.578125 240.054688 174.132812 162.222656 174.132812 Z M 162.222656 174.132812 " fill-opacity="1" fill-rule="nonzero"/></g><g clip-path="url(#dae3a4e3dd)"><path fill="#ff3131" d="M 773.472656 134.980469 L 773.472656 181.960938 C 773.472656 220.878906 710.363281 252.433594 632.53125 252.433594 C 554.699219 252.433594 491.589844 220.878906 491.589844 181.960938 L 491.589844 134.980469 C 491.589844 173.898438 554.699219 205.453125 632.53125 205.453125 C 710.363281 205.453125 773.472656 173.898438 773.472656 134.980469 Z M 491.589844 213.28125 C 491.589844 252.199219 554.699219 283.753906 632.53125 283.753906 C 710.363281 283.753906 773.472656 252.199219 773.472656 213.28125 L 773.472656 260.261719 C 773.472656 299.179688 710.363281 330.734375 632.53125 330.734375 C 554.699219 330.734375 491.589844 299.179688 491.589844 260.261719 Z M 632.53125 174.132812 C 554.699219 174.132812 491.589844 142.578125 491.589844 103.660156 C 491.589844 64.746094 554.699219 33.191406 632.53125 33.191406 C 710.363281 33.191406 773.472656 64.746094 773.472656 103.660156 C 773.472656 142.578125 710.363281 174.132812 632.53125 174.132812 Z M 632.53125 174.132812 " fill-opacity="1" fill-rule="nonzero"/></g><path fill="#000000" d="M 403.496094 479.371094 L 403.496094 470.371094 L 406.496094 470.371094 L 406.496094 479.371094 M 403.496094 467.371094 L 403.496094 458.371094 L 406.496094 458.371094 L 406.496094 467.371094 M 403.496094 455.371094 L 403.496094 446.371094 L 406.496094 446.371094 L 406.496094 455.371094 M 403.496094 443.371094 L 403.496094 434.371094 L 406.496094 434.371094 L 406.496094 443.371094 M 403.496094 431.371094 L 403.496094 422.371094 L 406.496094 422.371094 L 406.496094 431.371094 M 403.496094 419.371094 L 403.496094 410.371094 L 406.496094 410.371094 L 406.496094 419.371094 M 403.496094 407.371094 L 403.496094 404.996094 L 406.496094 404.996094 L 406.496094 407.371094 " fill-opacity="1" fill-rule="nonzero"/><path fill="#000000" d="M 162.222656 403.5 L 171.222656 403.5 L 171.222656 406.5 L 162.222656 406.5 M 174.222656 403.5 L 183.222656 403.5 L 183.222656 406.5 L 174.222656 406.5 M 186.222656 403.5 L 195.222656 403.5 L 195.222656 406.5 L 186.222656 406.5 M 198.222656 403.5 L 207.222656 403.5 L 207.222656 406.5 L 198.222656 406.5 M 210.222656 403.5 L 219.222656 403.5 L 219.222656 406.5 L 210.222656 406.5 M 222.222656 403.5 L 231.222656 403.5 L 231.222656 406.5 L 222.222656 406.5 M 234.222656 403.5 L 243.222656 403.5 L 243.222656 406.5 L 234.222656 406.5 M 246.222656 403.5 L 255.222656 403.5 L 255.222656 406.5 L 246.222656 406.5 M 258.222656 403.5 L 267.222656 403.5 L 267.222656 406.5 L 258.222656 406.5 M 270.222656 403.5 L 279.222656 403.5 L 279.222656 406.5 L 270.222656 406.5 M 282.222656 403.5 L 291.222656 403.5 L 291.222656 406.5 L 282.222656 406.5 M 294.222656 403.5 L 303.222656 403.5 L 303.222656 406.5 L 294.222656 406.5 M 306.222656 403.5 L 315.222656 403.5 L 315.222656 406.5 L 306.222656 406.5 M 318.222656 403.5 L 327.222656 403.5 L 327.222656 406.5 L 318.222656 406.5 M 330.222656 403.5 L 339.222656 403.5 L 339.222656 406.5 L 330.222656 406.5 M 342.222656 403.5 L 351.222656 403.5 L 351.222656 406.5 L 342.222656 406.5 M 354.222656 403.5 L 363.222656 403.5 L 363.222656 406.5 L 354.222656 406.5 M 366.222656 403.5 L 375.222656 403.5 L 375.222656 406.5 L 366.222656 406.5 M 378.222656 403.5 L 387.222656 403.5 L 387.222656 406.5 L 378.222656 406.5 M 390.222656 403.5 L 399.222656 403.5 L 399.222656 406.5 L 390.222656 406.5 M 402.222656 403.5 L 411.222656 403.5 L 411.222656 406.5 L 402.222656 406.5 M 414.222656 403.5 L 423.222656 403.5 L 423.222656 406.5 L 414.222656 406.5 M 426.222656 403.5 L 435.222656 403.5 L 435.222656 406.5 L 426.222656 406.5 M 438.222656 403.5 L 447.222656 403.5 L 447.222656 406.5 L 438.222656 406.5 M 450.222656 403.5 L 459.222656 403.5 L 459.222656 406.5 L 450.222656 406.5 M 462.222656 403.5 L 471.222656 403.5 L 471.222656 406.5 L 462.222656 406.5 M 474.222656 403.5 L 483.222656 403.5 L 483.222656 406.5 L 474.222656 406.5 M 486.222656 403.5 L 495.222656 403.5 L 495.222656 406.5 L 486.222656 406.5 M 498.222656 403.5 L 507.222656 403.5 L 507.222656 406.5 L 498.222656 406.5 M 510.222656 403.5 L 519.222656 403.5 L 519.222656 406.5 L 510.222656 406.5 M 522.222656 403.5 L 531.222656 403.5 L 531.222656 406.5 L 522.222656 406.5 M 534.222656 403.5 L 543.222656 403.5 L 543.222656 406.5 L 534.222656 406.5 M 546.222656 403.5 L 555.222656 403.5 L 555.222656 406.5 L 546.222656 406.5 M 558.222656 403.5 L 567.222656 403.5 L 567.222656 406.5 L 558.222656 406.5 M 570.222656 403.5 L 579.222656 403.5 L 579.222656 406.5 L 570.222656 406.5 M 582.222656 403.5 L 591.222656 403.5 L 591.222656 406.5 L 582.222656 406.5 M 594.222656 403.5 L 603.222656 403.5 L 603.222656 406.5 L 594.222656 406.5 M 606.222656 403.5 L 615.222656 403.5 L 615.222656 406.5 L 606.222656 406.5 M 618.222656 403.5 L 627.222656 403.5 L 627.222656 406.5 L 618.222656 406.5 M 630.222656 403.5 L 639.015625 403.5 L 639.015625 406.5 L 630.222656 406.5 " fill-opacity="1" fill-rule="nonzero"/><path fill="#000000" d="M 160.722656 405 L 160.722656 402 L 163.722656 402 L 163.722656 405 M 160.722656 399 L 160.722656 396 L 163.722656 396 L 163.722656 399 M 160.722656 393 L 160.722656 390 L 163.722656 390 L 163.722656 393 M 160.722656 387 L 160.722656 384 L 163.722656 384 L 163.722656 387 M 160.722656 381 L 160.722656 378 L 163.722656 378 L 163.722656 381 M 160.722656 375 L 160.722656 372 L 163.722656 372 L 163.722656 375 M 160.722656 369 L 160.722656 366 L 163.722656 366 L 163.722656 369 M 160.722656 363 L 160.722656 360 L 163.722656 360 L 163.722656 363 M 160.722656 357 L 160.722656 354 L 163.722656 354 L 163.722656 357 M 160.722656 351 L 160.722656 348 L 163.722656 348 L 163.722656 351 M 160.722656 345 L 160.722656 342 L 163.722656 342 L 163.722656 345 M 160.722656 339 L 160.722656 336 L 163.722656 336 L 163.722656 339 M 160.722656 333 L 160.722656 332.25 L 163.722656 332.25 L 163.722656 333 " fill-opacity="1" fill-rule="nonzero"/><path stroke-linecap="round" transform="matrix(0.000000001309, -0.75, 0.75, 0.000000001309, 160.723517, 405)" fill="none" stroke-linejoin="round" d="M 89.000004 -4.001148 L 97.000004 1.998852 L 89.000004 7.998853 " stroke="#000000" stroke-width="4" stroke-opacity="1" stroke-miterlimit="4"/><path fill="#000000" d="M 639.015625 405 L 639.015625 402 L 642.015625 402 L 642.015625 405 M 639.015625 399 L 639.015625 396 L 642.015625 396 L 642.015625 399 M 639.015625 393 L 639.015625 390 L 642.015625 390 L 642.015625 393 M 639.015625 387 L 639.015625 384 L 642.015625 384 L 642.015625 387 M 639.015625 381 L 639.015625 378 L 642.015625 378 L 642.015625 381 M 639.015625 375 L 639.015625 372 L 642.015625 372 L 642.015625 375 M 639.015625 369 L 639.015625 366 L 642.015625 366 L 642.015625 369 M 639.015625 363 L 639.015625 360 L 642.015625 360 L 642.015625 363 M 639.015625 357 L 639.015625 354 L 642.015625 354 L 642.015625 357 M 639.015625 351 L 639.015625 348 L 642.015625 348 L 642.015625 351 M 639.015625 345 L 639.015625 342 L 642.015625 342 L 642.015625 345 M 639.015625 339 L 639.015625 336 L 642.015625 336 L 642.015625 339 M 639.015625 333 L 639.015625 332.25 L 642.015625 332.25 L 642.015625 333 " fill-opacity="1" fill-rule="nonzero"/><path stroke-linecap="round" transform="matrix(0, -0.75, 0.75, 0, 639.017203, 405)" fill="none" stroke-linejoin="round" d="M 89.000004 -4.002105 L 97.000004 1.997896 L 89.000004 7.997896 " stroke="#000000" stroke-width="4" stroke-opacity="1" stroke-miterlimit="4"/><g fill="#000000" fill-opacity="1"><g transform="translate(365.593754, 667.186978)"><g><path d="M 18.984375 0.609375 C 16.015625 0.609375 13.375 0.242188 11.0625 -0.484375 C 8.75 -1.210938 6.816406 -2.171875 5.265625 -3.359375 C 3.722656 -4.554688 2.546875 -5.867188 1.734375 -7.296875 L 6.390625 -12.984375 L 7.125 -12.984375 C 8.40625 -11.066406 10.035156 -9.539062 12.015625 -8.40625 C 14.003906 -7.269531 16.328125 -6.703125 18.984375 -6.703125 C 21.253906 -6.703125 22.960938 -7.179688 24.109375 -8.140625 C 25.265625 -9.097656 25.84375 -10.414062 25.84375 -12.09375 C 25.84375 -13.113281 25.65625 -13.960938 25.28125 -14.640625 C 24.914062 -15.328125 24.300781 -15.914062 23.4375 -16.40625 C 22.582031 -16.894531 21.421875 -17.316406 19.953125 -17.671875 L 14.4375 -18.921875 C 10.59375 -19.804688 7.726562 -21.269531 5.84375 -23.3125 C 3.957031 -25.351562 3.015625 -28.003906 3.015625 -31.265625 C 3.015625 -33.679688 3.617188 -35.804688 4.828125 -37.640625 C 6.046875 -39.484375 7.8125 -40.910156 10.125 -41.921875 C 12.4375 -42.941406 15.203125 -43.453125 18.421875 -43.453125 C 21.722656 -43.453125 24.550781 -43.015625 26.90625 -42.140625 C 29.257812 -41.273438 31.25 -39.941406 32.875 -38.140625 L 28.6875 -32.40625 L 27.953125 -32.40625 C 26.742188 -33.675781 25.359375 -34.628906 23.796875 -35.265625 C 22.234375 -35.898438 20.441406 -36.21875 18.421875 -36.21875 C 16.097656 -36.21875 14.332031 -35.804688 13.125 -34.984375 C 11.914062 -34.160156 11.3125 -33.023438 11.3125 -31.578125 C 11.3125 -30.234375 11.734375 -29.160156 12.578125 -28.359375 C 13.429688 -27.554688 14.90625 -26.929688 17 -26.484375 L 22.625 -25.3125 C 26.78125 -24.4375 29.796875 -22.945312 31.671875 -20.84375 C 33.546875 -18.75 34.484375 -16.007812 34.484375 -12.625 C 34.484375 -9.945312 33.90625 -7.617188 32.75 -5.640625 C 31.601562 -3.660156 29.863281 -2.125 27.53125 -1.03125 C 25.207031 0.0625 22.359375 0.609375 18.984375 0.609375 Z M 18.984375 0.609375 "/></g></g><g transform="translate(402.390627, 667.186978)"><g><path d="M 23.40625 0.609375 C 19.457031 0.609375 15.976562 -0.207031 12.96875 -1.84375 C 9.96875 -3.488281 7.617188 -5.957031 5.921875 -9.25 C 4.222656 -12.539062 3.375 -16.597656 3.375 -21.421875 C 3.375 -26.242188 4.222656 -30.300781 5.921875 -33.59375 C 7.617188 -36.882812 9.96875 -39.347656 12.96875 -40.984375 C 15.976562 -42.628906 19.457031 -43.453125 23.40625 -43.453125 C 27.53125 -43.453125 31.03125 -42.644531 33.90625 -41.03125 C 36.789062 -39.414062 38.847656 -36.957031 40.078125 -33.65625 L 33.890625 -29.890625 L 33.171875 -29.90625 C 32.242188 -32.132812 30.992188 -33.734375 29.421875 -34.703125 C 27.859375 -35.671875 25.851562 -36.15625 23.40625 -36.15625 C 19.851562 -36.15625 17.078125 -34.976562 15.078125 -32.625 C 13.085938 -30.269531 12.09375 -26.535156 12.09375 -21.421875 C 12.09375 -16.316406 13.085938 -12.585938 15.078125 -10.234375 C 17.078125 -7.878906 19.851562 -6.703125 23.40625 -6.703125 C 28.976562 -6.703125 32.390625 -9.410156 33.640625 -14.828125 L 34.359375 -14.828125 L 40.609375 -11.578125 C 39.429688 -7.515625 37.425781 -4.46875 34.59375 -2.4375 C 31.769531 -0.40625 28.039062 0.609375 23.40625 0.609375 Z M 23.40625 0.609375 "/></g></g></g><g fill="#000000" fill-opacity="1"><g transform="translate(64.31667, 119.974591)"><g><path d="M 18.984375 0.609375 C 16.015625 0.609375 13.375 0.242188 11.0625 -0.484375 C 8.75 -1.210938 6.816406 -2.171875 5.265625 -3.359375 C 3.722656 -4.554688 2.546875 -5.867188 1.734375 -7.296875 L 6.390625 -12.984375 L 7.125 -12.984375 C 8.40625 -11.066406 10.035156 -9.539062 12.015625 -8.40625 C 14.003906 -7.269531 16.328125 -6.703125 18.984375 -6.703125 C 21.253906 -6.703125 22.960938 -7.179688 24.109375 -8.140625 C 25.265625 -9.097656 25.84375 -10.414062 25.84375 -12.09375 C 25.84375 -13.113281 25.65625 -13.960938 25.28125 -14.640625 C 24.914062 -15.328125 24.300781 -15.914062 23.4375 -16.40625 C 22.582031 -16.894531 21.421875 -17.316406 19.953125 -17.671875 L 14.4375 -18.921875 C 10.59375 -19.804688 7.726562 -21.269531 5.84375 -23.3125 C 3.957031 -25.351562 3.015625 -28.003906 3.015625 -31.265625 C 3.015625 -33.679688 3.617188 -35.804688 4.828125 -37.640625 C 6.046875 -39.484375 7.8125 -40.910156 10.125 -41.921875 C 12.4375 -42.941406 15.203125 -43.453125 18.421875 -43.453125 C 21.722656 -43.453125 24.550781 -43.015625 26.90625 -42.140625 C 29.257812 -41.273438 31.25 -39.941406 32.875 -38.140625 L 28.6875 -32.40625 L 27.953125 -32.40625 C 26.742188 -33.675781 25.359375 -34.628906 23.796875 -35.265625 C 22.234375 -35.898438 20.441406 -36.21875 18.421875 -36.21875 C 16.097656 -36.21875 14.332031 -35.804688 13.125 -34.984375 C 11.914062 -34.160156 11.3125 -33.023438 11.3125 -31.578125 C 11.3125 -30.234375 11.734375 -29.160156 12.578125 -28.359375 C 13.429688 -27.554688 14.90625 -26.929688 17 -26.484375 L 22.625 -25.3125 C 26.78125 -24.4375 29.796875 -22.945312 31.671875 -20.84375 C 33.546875 -18.75 34.484375 -16.007812 34.484375 -12.625 C 34.484375 -9.945312 33.90625 -7.617188 32.75 -5.640625 C 31.601562 -3.660156 29.863281 -2.125 27.53125 -1.03125 C 25.207031 0.0625 22.359375 0.609375 18.984375 0.609375 Z M 18.984375 0.609375 "/></g></g><g transform="translate(101.113543, 119.974591)"><g><path d="M 34.046875 10.671875 C 30.273438 10.671875 27.144531 9.757812 24.65625 7.9375 C 22.164062 6.125 20.488281 3.597656 19.625 0.359375 C 16.363281 -0.117188 13.515625 -1.226562 11.078125 -2.96875 C 8.648438 -4.71875 6.757812 -7.132812 5.40625 -10.21875 C 4.050781 -13.3125 3.375 -17.046875 3.375 -21.421875 C 3.375 -26.316406 4.222656 -30.410156 5.921875 -33.703125 C 7.617188 -36.992188 9.96875 -39.441406 12.96875 -41.046875 C 15.96875 -42.648438 19.425781 -43.453125 23.34375 -43.453125 C 27.269531 -43.453125 30.726562 -42.65625 33.71875 -41.0625 C 36.707031 -39.46875 39.046875 -37.019531 40.734375 -33.71875 C 42.421875 -30.414062 43.265625 -26.316406 43.265625 -21.421875 C 43.265625 -15.015625 41.894531 -10.097656 39.15625 -6.671875 C 36.414062 -3.242188 32.5625 -1.109375 27.59375 -0.265625 L 27.453125 0.328125 C 28.054688 1.359375 28.957031 2.148438 30.15625 2.703125 C 31.363281 3.265625 32.765625 3.546875 34.359375 3.546875 C 35.648438 3.546875 36.816406 3.378906 37.859375 3.046875 L 38.4375 3.171875 L 39.640625 9.78125 C 39.015625 10.019531 38.171875 10.226562 37.109375 10.40625 C 36.054688 10.582031 35.035156 10.671875 34.046875 10.671875 Z M 23.34375 -6.734375 C 26.976562 -6.734375 29.753906 -7.898438 31.671875 -10.234375 C 33.585938 -12.566406 34.546875 -16.296875 34.546875 -21.421875 C 34.546875 -26.535156 33.585938 -30.265625 31.671875 -32.609375 C 29.753906 -34.953125 26.976562 -36.125 23.34375 -36.125 C 19.695312 -36.125 16.910156 -34.953125 14.984375 -32.609375 C 13.054688 -30.265625 12.09375 -26.535156 12.09375 -21.421875 C 12.09375 -16.296875 13.054688 -12.566406 14.984375 -10.234375 C 16.910156 -7.898438 19.695312 -6.734375 23.34375 -6.734375 Z M 23.34375 -6.734375 "/></g></g><g transform="translate(147.783462, 119.974591)"><g><path d="M 14.03125 -42.828125 L 14.03125 -7.09375 L 33.28125 -7.09375 L 33.28125 0 L 5.5625 0 L 5.5625 -42.828125 Z M 14.03125 -42.828125 "/></g></g><g transform="translate(182.47096, 119.974591)"><g><path d="M 8.703125 -36.1875 C 7.234375 -36.1875 6.039062 -36.628906 5.125 -37.515625 C 4.207031 -38.398438 3.75 -39.546875 3.75 -40.953125 C 3.75 -42.335938 4.207031 -43.472656 5.125 -44.359375 C 6.039062 -45.253906 7.234375 -45.703125 8.703125 -45.703125 C 9.679688 -45.703125 10.550781 -45.492188 11.3125 -45.078125 C 12.070312 -44.671875 12.660156 -44.109375 13.078125 -43.390625 C 13.503906 -42.679688 13.71875 -41.867188 13.71875 -40.953125 C 13.71875 -40.035156 13.503906 -39.210938 13.078125 -38.484375 C 12.660156 -37.765625 12.070312 -37.203125 11.3125 -36.796875 C 10.550781 -36.390625 9.679688 -36.1875 8.703125 -36.1875 Z M 4.65625 0 L 4.65625 -32.3125 L 12.78125 -32.3125 L 12.78125 0 Z M 4.65625 0 "/></g></g><g transform="translate(199.873303, 119.974591)"><g><path d="M 22.296875 -7.703125 L 24.40625 -1.703125 C 23.53125 -0.972656 22.425781 -0.40625 21.09375 0 C 19.769531 0.40625 18.265625 0.609375 16.578125 0.609375 C 13.085938 0.609375 10.429688 -0.335938 8.609375 -2.234375 C 6.796875 -4.140625 5.890625 -6.910156 5.890625 -10.546875 L 5.890625 -25.90625 L 0.96875 -25.90625 L 0.96875 -32.34375 L 5.890625 -32.34375 L 5.890625 -38.640625 L 14 -39.96875 L 14 -32.34375 L 23.171875 -32.34375 L 23.171875 -25.90625 L 14 -25.90625 L 14 -11.140625 C 14 -9.535156 14.332031 -8.363281 15 -7.625 C 15.664062 -6.894531 16.632812 -6.53125 17.90625 -6.53125 C 19.34375 -6.53125 20.601562 -6.921875 21.6875 -7.703125 Z M 22.296875 -7.703125 "/></g></g><g transform="translate(224.980724, 119.974591)"><g><path d="M 31.9375 -14.328125 L 11.15625 -14.328125 C 11.394531 -11.515625 12.195312 -9.46875 13.5625 -8.1875 C 14.925781 -6.90625 16.789062 -6.265625 19.15625 -6.265625 C 21.007812 -6.265625 22.515625 -6.609375 23.671875 -7.296875 C 24.828125 -7.992188 25.753906 -9.046875 26.453125 -10.453125 L 27.078125 -10.453125 L 32.46875 -7 C 31.40625 -4.738281 29.8125 -2.90625 27.6875 -1.5 C 25.5625 -0.09375 22.71875 0.609375 19.15625 0.609375 C 15.820312 0.609375 12.9375 -0.0195312 10.5 -1.28125 C 8.070312 -2.550781 6.195312 -4.441406 4.875 -6.953125 C 3.5625 -9.460938 2.90625 -12.523438 2.90625 -16.140625 C 2.90625 -19.816406 3.597656 -22.910156 4.984375 -25.421875 C 6.367188 -27.941406 8.242188 -29.820312 10.609375 -31.0625 C 12.972656 -32.3125 15.628906 -32.9375 18.578125 -32.9375 C 23.148438 -32.9375 26.648438 -31.722656 29.078125 -29.296875 C 31.503906 -26.878906 32.71875 -23.328125 32.71875 -18.640625 C 32.71875 -16.929688 32.660156 -15.609375 32.546875 -14.671875 Z M 24.96875 -19.578125 C 24.882812 -22.035156 24.3125 -23.820312 23.25 -24.9375 C 22.1875 -26.0625 20.628906 -26.625 18.578125 -26.625 C 14.472656 -26.625 12.0625 -24.273438 11.34375 -19.578125 Z M 24.96875 -19.578125 "/></g></g></g><g fill="#000000" fill-opacity="1"><g transform="translate(527.610318, 119.974591)"><g><path d="M 13.765625 0 L 5.5625 0 L 5.5625 -42.828125 L 15.265625 -42.828125 L 32.46875 -15.234375 L 33.21875 -15.359375 L 33.21875 -42.828125 L 41.375 -42.828125 L 41.375 0 L 32.703125 0 L 14.5 -29.46875 L 13.765625 -29.359375 Z M 13.765625 0 "/></g></g><g transform="translate(574.573206, 119.974591)"><g><path d="M 18.78125 0.609375 C 15.613281 0.609375 12.832031 -0.0351562 10.4375 -1.328125 C 8.050781 -2.628906 6.195312 -4.535156 4.875 -7.046875 C 3.5625 -9.554688 2.90625 -12.585938 2.90625 -16.140625 C 2.90625 -19.691406 3.5625 -22.726562 4.875 -25.25 C 6.195312 -27.769531 8.050781 -29.679688 10.4375 -30.984375 C 12.832031 -32.285156 15.613281 -32.9375 18.78125 -32.9375 C 21.945312 -32.9375 24.722656 -32.285156 27.109375 -30.984375 C 29.503906 -29.679688 31.363281 -27.769531 32.6875 -25.25 C 34.019531 -22.726562 34.6875 -19.691406 34.6875 -16.140625 C 34.6875 -12.585938 34.019531 -9.554688 32.6875 -7.046875 C 31.363281 -4.535156 29.503906 -2.628906 27.109375 -1.328125 C 24.722656 -0.0351562 21.945312 0.609375 18.78125 0.609375 Z M 18.78125 -6.265625 C 23.800781 -6.265625 26.3125 -9.554688 26.3125 -16.140625 C 26.3125 -19.554688 25.664062 -22.0625 24.375 -23.65625 C 23.082031 -25.25 21.21875 -26.046875 18.78125 -26.046875 C 13.757812 -26.046875 11.25 -22.742188 11.25 -16.140625 C 11.25 -9.554688 13.757812 -6.265625 18.78125 -6.265625 Z M 18.78125 -6.265625 "/></g></g><g transform="translate(612.131798, 119.974591)"><g><path d="M 20.515625 -17.234375 L 2.546875 -17.234375 L 2.546875 -24.375 L 20.515625 -24.375 Z M 20.515625 -17.234375 "/></g></g><g transform="translate(635.247031, 119.974591)"><g><path d="M 18.984375 0.609375 C 16.015625 0.609375 13.375 0.242188 11.0625 -0.484375 C 8.75 -1.210938 6.816406 -2.171875 5.265625 -3.359375 C 3.722656 -4.554688 2.546875 -5.867188 1.734375 -7.296875 L 6.390625 -12.984375 L 7.125 -12.984375 C 8.40625 -11.066406 10.035156 -9.539062 12.015625 -8.40625 C 14.003906 -7.269531 16.328125 -6.703125 18.984375 -6.703125 C 21.253906 -6.703125 22.960938 -7.179688 24.109375 -8.140625 C 25.265625 -9.097656 25.84375 -10.414062 25.84375 -12.09375 C 25.84375 -13.113281 25.65625 -13.960938 25.28125 -14.640625 C 24.914062 -15.328125 24.300781 -15.914062 23.4375 -16.40625 C 22.582031 -16.894531 21.421875 -17.316406 19.953125 -17.671875 L 14.4375 -18.921875 C 10.59375 -19.804688 7.726562 -21.269531 5.84375 -23.3125 C 3.957031 -25.351562 3.015625 -28.003906 3.015625 -31.265625 C 3.015625 -33.679688 3.617188 -35.804688 4.828125 -37.640625 C 6.046875 -39.484375 7.8125 -40.910156 10.125 -41.921875 C 12.4375 -42.941406 15.203125 -43.453125 18.421875 -43.453125 C 21.722656 -43.453125 24.550781 -43.015625 26.90625 -42.140625 C 29.257812 -41.273438 31.25 -39.941406 32.875 -38.140625 L 28.6875 -32.40625 L 27.953125 -32.40625 C 26.742188 -33.675781 25.359375 -34.628906 23.796875 -35.265625 C 22.234375 -35.898438 20.441406 -36.21875 18.421875 -36.21875 C 16.097656 -36.21875 14.332031 -35.804688 13.125 -34.984375 C 11.914062 -34.160156 11.3125 -33.023438 11.3125 -31.578125 C 11.3125 -30.234375 11.734375 -29.160156 12.578125 -28.359375 C 13.429688 -27.554688 14.90625 -26.929688 17 -26.484375 L 22.625 -25.3125 C 26.78125 -24.4375 29.796875 -22.945312 31.671875 -20.84375 C 33.546875 -18.75 34.484375 -16.007812 34.484375 -12.625 C 34.484375 -9.945312 33.90625 -7.617188 32.75 -5.640625 C 31.601562 -3.660156 29.863281 -2.125 27.53125 -1.03125 C 25.207031 0.0625 22.359375 0.609375 18.984375 0.609375 Z M 18.984375 0.609375 "/></g></g><g transform="translate(672.043905, 119.974591)"><g><path d="M 34.046875 10.671875 C 30.273438 10.671875 27.144531 9.757812 24.65625 7.9375 C 22.164062 6.125 20.488281 3.597656 19.625 0.359375 C 16.363281 -0.117188 13.515625 -1.226562 11.078125 -2.96875 C 8.648438 -4.71875 6.757812 -7.132812 5.40625 -10.21875 C 4.050781 -13.3125 3.375 -17.046875 3.375 -21.421875 C 3.375 -26.316406 4.222656 -30.410156 5.921875 -33.703125 C 7.617188 -36.992188 9.96875 -39.441406 12.96875 -41.046875 C 15.96875 -42.648438 19.425781 -43.453125 23.34375 -43.453125 C 27.269531 -43.453125 30.726562 -42.65625 33.71875 -41.0625 C 36.707031 -39.46875 39.046875 -37.019531 40.734375 -33.71875 C 42.421875 -30.414062 43.265625 -26.316406 43.265625 -21.421875 C 43.265625 -15.015625 41.894531 -10.097656 39.15625 -6.671875 C 36.414062 -3.242188 32.5625 -1.109375 27.59375 -0.265625 L 27.453125 0.328125 C 28.054688 1.359375 28.957031 2.148438 30.15625 2.703125 C 31.363281 3.265625 32.765625 3.546875 34.359375 3.546875 C 35.648438 3.546875 36.816406 3.378906 37.859375 3.046875 L 38.4375 3.171875 L 39.640625 9.78125 C 39.015625 10.019531 38.171875 10.226562 37.109375 10.40625 C 36.054688 10.582031 35.035156 10.671875 34.046875 10.671875 Z M 23.34375 -6.734375 C 26.976562 -6.734375 29.753906 -7.898438 31.671875 -10.234375 C 33.585938 -12.566406 34.546875 -16.296875 34.546875 -21.421875 C 34.546875 -26.535156 33.585938 -30.265625 31.671875 -32.609375 C 29.753906 -34.953125 26.976562 -36.125 23.34375 -36.125 C 19.695312 -36.125 16.910156 -34.953125 14.984375 -32.609375 C 13.054688 -30.265625 12.09375 -26.535156 12.09375 -21.421875 C 12.09375 -16.296875 13.054688 -12.566406 14.984375 -10.234375 C 16.910156 -7.898438 19.695312 -6.734375 23.34375 -6.734375 Z M 23.34375 -6.734375 "/></g></g><g transform="translate(718.713824, 119.974591)"><g><path d="M 14.03125 -42.828125 L 14.03125 -7.09375 L 33.28125 -7.09375 L 33.28125 0 L 5.5625 0 L 5.5625 -42.828125 Z M 14.03125 -42.828125 "/></g></g></g><g fill="#000000" fill-opacity="1"><g transform="translate(315.746853, 379.750021)"><g><path d="M 14.8125 5.109375 C 12.050781 5.109375 9.988281 4.457031 8.625 3.15625 C 7.269531 1.851562 6.59375 -0.148438 6.59375 -2.859375 L 6.59375 -10.640625 C 6.59375 -11.753906 6.359375 -12.539062 5.890625 -13 C 5.429688 -13.46875 4.648438 -13.703125 3.546875 -13.703125 L 1.921875 -13.703125 L 1.921875 -18.953125 L 3.546875 -18.953125 C 4.648438 -18.953125 5.429688 -19.179688 5.890625 -19.640625 C 6.359375 -20.109375 6.59375 -20.894531 6.59375 -22 L 6.59375 -29.78125 C 6.59375 -32.488281 7.269531 -34.492188 8.625 -35.796875 C 9.988281 -37.097656 12.050781 -37.75 14.8125 -37.75 L 18 -37.75 L 18 -32.59375 L 16.0625 -32.59375 C 15.019531 -32.59375 14.265625 -32.351562 13.796875 -31.875 C 13.328125 -31.394531 13.09375 -30.582031 13.09375 -29.4375 L 13.09375 -22.875 C 13.09375 -21.039062 12.757812 -19.640625 12.09375 -18.671875 C 11.4375 -17.710938 10.414062 -17.015625 9.03125 -16.578125 L 9.03125 -16.0625 C 10.414062 -15.625 11.4375 -14.925781 12.09375 -13.96875 C 12.757812 -13.007812 13.09375 -11.609375 13.09375 -9.765625 L 13.09375 -3.203125 C 13.09375 -2.054688 13.328125 -1.242188 13.796875 -0.765625 C 14.265625 -0.285156 15.019531 -0.046875 16.0625 -0.046875 L 18 -0.046875 L 18 5.109375 Z M 14.8125 5.109375 "/></g></g></g><g fill="#000000" fill-opacity="1"><g transform="translate(335.22623, 379.750021)"><g><path d="M 4.640625 0 L 4.640625 -35.6875 L 18.96875 -35.6875 C 22.664062 -35.6875 25.453125 -34.835938 27.328125 -33.140625 C 29.210938 -31.441406 30.15625 -29.09375 30.15625 -26.09375 C 30.15625 -23.9375 29.601562 -22.164062 28.5 -20.78125 C 27.40625 -19.394531 25.765625 -18.335938 23.578125 -17.609375 L 23.578125 -17.09375 C 24.703125 -16.601562 25.609375 -15.878906 26.296875 -14.921875 C 26.992188 -13.960938 27.648438 -12.535156 28.265625 -10.640625 L 31.84375 0 L 24.578125 0 L 21.09375 -10.671875 C 20.738281 -11.742188 20.335938 -12.578125 19.890625 -13.171875 C 19.441406 -13.765625 18.867188 -14.195312 18.171875 -14.46875 C 17.484375 -14.738281 16.585938 -14.875 15.484375 -14.875 L 11.6875 -14.875 L 11.6875 0 Z M 18.109375 -20.453125 C 21.535156 -20.453125 23.25 -22.050781 23.25 -25.25 C 23.25 -28.488281 21.535156 -30.109375 18.109375 -30.109375 L 11.6875 -30.109375 L 11.6875 -20.453125 Z M 18.109375 -20.453125 "/></g></g></g><g fill="#000000" fill-opacity="1"><g transform="translate(368.595037, 379.750021)"><g><path d="M 11.6875 -15.671875 L 11.6875 -5.90625 L 28.734375 -5.90625 L 28.734375 0 L 4.640625 0 L 4.640625 -35.6875 L 28.34375 -35.6875 L 28.34375 -29.78125 L 11.6875 -29.78125 L 11.6875 -21.4375 L 26.25 -21.4375 L 26.25 -15.671875 Z M 11.6875 -15.671875 "/></g></g></g><g fill="#000000" fill-opacity="1"><g transform="translate(399.278717, 379.750021)"><g><path d="M 15.828125 0.515625 C 13.347656 0.515625 11.144531 0.210938 9.21875 -0.390625 C 7.289062 -1.003906 5.679688 -1.804688 4.390625 -2.796875 C 3.109375 -3.796875 2.125 -4.890625 1.4375 -6.078125 L 5.328125 -10.8125 L 5.9375 -10.8125 C 7.007812 -9.21875 8.367188 -7.945312 10.015625 -7 C 11.671875 -6.0625 13.609375 -5.59375 15.828125 -5.59375 C 17.710938 -5.59375 19.132812 -5.988281 20.09375 -6.78125 C 21.050781 -7.582031 21.53125 -8.679688 21.53125 -10.078125 C 21.53125 -10.929688 21.375 -11.640625 21.0625 -12.203125 C 20.757812 -12.773438 20.25 -13.265625 19.53125 -13.671875 C 18.8125 -14.078125 17.84375 -14.425781 16.625 -14.71875 L 12.03125 -15.765625 C 8.832031 -16.503906 6.445312 -17.722656 4.875 -19.421875 C 3.300781 -21.117188 2.515625 -23.328125 2.515625 -26.046875 C 2.515625 -28.066406 3.019531 -29.84375 4.03125 -31.375 C 5.039062 -32.90625 6.507812 -34.09375 8.4375 -34.9375 C 10.363281 -35.78125 12.671875 -36.203125 15.359375 -36.203125 C 18.109375 -36.203125 20.460938 -35.835938 22.421875 -35.109375 C 24.378906 -34.390625 26.035156 -33.28125 27.390625 -31.78125 L 23.90625 -27 L 23.296875 -27 C 22.285156 -28.0625 21.128906 -28.851562 19.828125 -29.375 C 18.523438 -29.90625 17.035156 -30.171875 15.359375 -30.171875 C 13.421875 -30.171875 11.945312 -29.828125 10.9375 -29.140625 C 9.925781 -28.460938 9.421875 -27.519531 9.421875 -26.3125 C 9.421875 -25.195312 9.773438 -24.300781 10.484375 -23.625 C 11.191406 -22.957031 12.414062 -22.441406 14.15625 -22.078125 L 18.84375 -21.09375 C 22.3125 -20.363281 24.828125 -19.125 26.390625 -17.375 C 27.953125 -15.625 28.734375 -13.335938 28.734375 -10.515625 C 28.734375 -8.285156 28.253906 -6.34375 27.296875 -4.6875 C 26.335938 -3.039062 24.890625 -1.757812 22.953125 -0.84375 C 21.015625 0.0625 18.640625 0.515625 15.828125 0.515625 Z M 15.828125 0.515625 "/></g></g></g><g fill="#000000" fill-opacity="1"><g transform="translate(429.937986, 379.750021)"><g><path d="M 28.609375 -35.6875 L 28.609375 -29.765625 L 18.3125 -29.765625 L 18.3125 0 L 11.28125 0 L 11.28125 -29.765625 L 0.984375 -29.765625 L 0.984375 -35.6875 Z M 28.609375 -35.6875 "/></g></g></g><g fill="#000000" fill-opacity="1"><g transform="translate(459.523205, 379.750021)"><g><path d="M 1.484375 5.109375 L 1.484375 -0.046875 L 3.421875 -0.046875 C 4.441406 -0.046875 5.1875 -0.285156 5.65625 -0.765625 C 6.132812 -1.242188 6.375 -2.054688 6.375 -3.203125 L 6.375 -9.765625 C 6.375 -11.609375 6.707031 -13.003906 7.375 -13.953125 C 8.039062 -14.898438 9.066406 -15.601562 10.453125 -16.0625 L 10.453125 -16.578125 C 9.066406 -17.035156 8.039062 -17.738281 7.375 -18.6875 C 6.707031 -19.644531 6.375 -21.039062 6.375 -22.875 L 6.375 -29.4375 C 6.375 -30.582031 6.132812 -31.394531 5.65625 -31.875 C 5.1875 -32.351562 4.441406 -32.59375 3.421875 -32.59375 L 1.484375 -32.59375 L 1.484375 -37.75 L 4.65625 -37.75 C 7.425781 -37.75 9.488281 -37.097656 10.84375 -35.796875 C 12.207031 -34.492188 12.890625 -32.488281 12.890625 -29.78125 L 12.890625 -22 C 12.890625 -20.894531 13.117188 -20.109375 13.578125 -19.640625 C 14.046875 -19.179688 14.832031 -18.953125 15.9375 -18.953125 L 17.53125 -18.953125 L 17.53125 -13.703125 L 15.9375 -13.703125 C 14.832031 -13.703125 14.046875 -13.46875 13.578125 -13 C 13.117188 -12.539062 12.890625 -11.753906 12.890625 -10.640625 L 12.890625 -2.859375 C 12.890625 -0.148438 12.207031 1.851562 10.84375 3.15625 C 9.488281 4.457031 7.425781 5.109375 4.65625 5.109375 Z M 1.484375 5.109375 "/></g></g></g></svg>